<svg id="Слой_1" data-name="Слой 1" xmlns="http://www.w3.org/2000/svg" viewBox="0 0 269.31 136.62"><defs><style>.cls-1{fill:#191919;}.cls-2{fill:none;}.cls-3{fill:#f4f4f4;}</style></defs><title>logo</title><path d="M271,228.87a.82.82,0,0,0,.51-.17l-.79.12A.87.87,0,0,0,271,228.87Z" transform="translate(-190.13 -93.48)"/><path d="M217.94,225.62a.93.93,0,0,0,.06.34.93.93,0,0,1-.06-.34.84.84,0,0,1,.19-.53h0A.84.84,0,0,0,217.94,225.62Z" transform="translate(-190.13 -93.48)"/><path d="M215.65,223.46a.86.86,0,0,0,.86.87.78.78,0,0,0,.22,0,7.65,7.65,0,0,1-1.08-.84Z" transform="translate(-190.13 -93.48)"/><circle cx="96.78" cy="127.6" r="0.87"/><path d="M284.62,222.6a.87.87,0,1,0,.87.86A.87.87,0,0,0,284.62,222.6Z" transform="translate(-190.13 -93.48)"/><path d="M284.62,218.06a.87.87,0,0,0,0,1.73.87.87,0,1,0,0-1.73Z" transform="translate(-190.13 -93.48)"/><path d="M282.37,224.76a.87.87,0,0,0-.86.86.84.84,0,0,0,.36.7c.47-.16.92-.32,1.34-.49a.71.71,0,0,0,0-.21A.87.87,0,0,0,282.37,224.76Z" transform="translate(-190.13 -93.48)"/><circle cx="92.24" cy="127.6" r="0.87"/><path d="M282.37,217.41a.86.86,0,0,0,.84-.66c-.5-.2-1-.39-1.61-.58a.78.78,0,0,0-.09.37A.87.87,0,0,0,282.37,217.41Z" transform="translate(-190.13 -93.48)"/><path d="M280.08,222.6a.87.87,0,1,0,.87.86A.87.87,0,0,0,280.08,222.6Z" transform="translate(-190.13 -93.48)"/><path d="M280.08,218.06a.87.87,0,0,0,0,1.73.87.87,0,1,0,0-1.73Z" transform="translate(-190.13 -93.48)"/><circle cx="87.7" cy="132.14" r="0.87"/><circle cx="87.7" cy="127.6" r="0.87"/><circle cx="87.7" cy="123.06" r="0.87"/><path d="M275.54,227.14a.86.86,0,0,0-.86.86.81.81,0,0,0,0,.16l1.7-.35A.88.88,0,0,0,275.54,227.14Z" transform="translate(-190.13 -93.48)"/><path d="M275.54,222.6a.87.87,0,0,0,0,1.73.87.87,0,1,0,0-1.73Z" transform="translate(-190.13 -93.48)"/><path d="M275.54,218.06a.87.87,0,0,0,0,1.73.87.87,0,1,0,0-1.73Z" transform="translate(-190.13 -93.48)"/><path d="M275.54,215.25a.86.86,0,0,0,.78-.49c-.53-.12-1.08-.23-1.64-.34A.87.87,0,0,0,275.54,215.25Z" transform="translate(-190.13 -93.48)"/><circle cx="83.16" cy="132.14" r="0.87"/><circle cx="83.16" cy="127.6" r="0.87"/><circle cx="83.16" cy="123.06" r="0.87"/><path d="M271,227.14a.86.86,0,0,0-.28,1.68l.79-.12a.86.86,0,0,0,.36-.7A.87.87,0,0,0,271,227.14Z" transform="translate(-190.13 -93.48)"/><path d="M271,222.6a.87.87,0,0,0,0,1.73.87.87,0,1,0,0-1.73Z" transform="translate(-190.13 -93.48)"/><path d="M271,218.06a.87.87,0,0,0,0,1.73.87.87,0,1,0,0-1.73Z" transform="translate(-190.13 -93.48)"/><circle cx="78.62" cy="132.14" r="0.87"/><circle cx="78.62" cy="127.6" r="0.87"/><path d="M266.46,227.14a.87.87,0,0,0,0,1.73.87.87,0,1,0,0-1.73Z" transform="translate(-190.13 -93.48)"/><path d="M266.46,222.6a.87.87,0,0,0,0,1.73.87.87,0,1,0,0-1.73Z" transform="translate(-190.13 -93.48)"/><path d="M266.46,219.79a.86.86,0,0,0,.83-.63c-.35.21-.7.4-1.06.59A.59.59,0,0,0,266.46,219.79Z" transform="translate(-190.13 -93.48)"/><path d="M263.54,229.62l1.24-.1a.83.83,0,0,0-.57-.22A.88.88,0,0,0,263.54,229.62Z" transform="translate(-190.13 -93.48)"/><circle cx="74.08" cy="132.14" r="0.87"/><path d="M263.35,221.14a.87.87,0,0,0,1.73-.06.85.85,0,0,0-.26-.61C264.34,220.71,263.85,220.93,263.35,221.14Z" transform="translate(-190.13 -93.48)"/><path d="M261.92,227.14a.87.87,0,1,0,.87.86A.87.87,0,0,0,261.92,227.14Z" transform="translate(-190.13 -93.48)"/><path d="M261.92,222.6a.87.87,0,1,0,.87.86A.87.87,0,0,0,261.92,222.6Z" transform="translate(-190.13 -93.48)"/><path d="M259.67,229.3a.86.86,0,0,0-.83.63l1.63-.09A.86.86,0,0,0,259.67,229.3Z" transform="translate(-190.13 -93.48)"/><circle cx="69.54" cy="132.14" r="0.87"/><path d="M257.38,227.14a.87.87,0,1,0,.87.86A.87.87,0,0,0,257.38,227.14Z" transform="translate(-190.13 -93.48)"/><path d="M256.51,223.46a.87.87,0,1,0,1.74,0,.84.84,0,0,0-.21-.55c-.49.12-1,.23-1.49.33A.85.85,0,0,0,256.51,223.46Z" transform="translate(-190.13 -93.48)"/><path d="M255.13,229.3a.87.87,0,0,0-.86.78l1.71,0A.86.86,0,0,0,255.13,229.3Z" transform="translate(-190.13 -93.48)"/><circle cx="65" cy="132.14" r="0.87"/><path d="M252.84,227.14a.87.87,0,1,0,.87.86A.87.87,0,0,0,252.84,227.14Z" transform="translate(-190.13 -93.48)"/><path d="M252.84,224.33a.85.85,0,0,0,.83-.65c-.53.06-1.07.11-1.62.14A.87.87,0,0,0,252.84,224.33Z" transform="translate(-190.13 -93.48)"/><path d="M250.59,229.3a.87.87,0,0,0-.86.79h1.72A.86.86,0,0,0,250.59,229.3Z" transform="translate(-190.13 -93.48)"/><circle cx="60.46" cy="132.14" r="0.87"/><path d="M248.3,227.14a.87.87,0,1,0,.87.86A.87.87,0,0,0,248.3,227.14Z" transform="translate(-190.13 -93.48)"/><path d="M248.3,224.33a.86.86,0,0,0,.75-.45c-.52,0-1,0-1.54-.07A.85.85,0,0,0,248.3,224.33Z" transform="translate(-190.13 -93.48)"/><path d="M246.05,229.3a.88.88,0,0,0-.85.67c.57,0,1.13.05,1.7.06A.86.86,0,0,0,246.05,229.3Z" transform="translate(-190.13 -93.48)"/><circle cx="55.92" cy="132.14" r="0.87"/><path d="M243.76,227.14a.87.87,0,1,0,.86.86A.87.87,0,0,0,243.76,227.14Z" transform="translate(-190.13 -93.48)"/><path d="M242.89,223.46a.87.87,0,0,0,.87.87.86.86,0,0,0,.86-.84q-.84-.13-1.68-.3A.81.81,0,0,0,242.89,223.46Z" transform="translate(-190.13 -93.48)"/><path d="M241.51,229.3a.89.89,0,0,0-.75.42l1.55.11A.88.88,0,0,0,241.51,229.3Z" transform="translate(-190.13 -93.48)"/><circle cx="51.38" cy="132.14" r="0.87"/><path d="M239.22,227.14a.87.87,0,1,0,.86.86A.87.87,0,0,0,239.22,227.14Z" transform="translate(-190.13 -93.48)"/><path d="M239.22,222.6a.87.87,0,1,0,.86.86A.87.87,0,0,0,239.22,222.6Z" transform="translate(-190.13 -93.48)"/><path d="M236.65,229.36l.79.08a.84.84,0,0,0-.47-.14A.83.83,0,0,0,236.65,229.36Z" transform="translate(-190.13 -93.48)"/><circle cx="46.84" cy="132.14" r="0.87"/><path d="M234.68,227.14a.87.87,0,1,0,.86.86A.87.87,0,0,0,234.68,227.14Z" transform="translate(-190.13 -93.48)"/><path d="M234.68,222.6a.87.87,0,1,0,.86.86A.87.87,0,0,0,234.68,222.6Z" transform="translate(-190.13 -93.48)"/><circle cx="42.3" cy="132.14" r="0.87"/><circle cx="42.3" cy="127.6" r="0.87"/><path d="M230.14,227.14a.87.87,0,0,0-.87.86.74.74,0,0,0,.07.34l1.43.25A.89.89,0,0,0,231,228,.87.87,0,0,0,230.14,227.14Z" transform="translate(-190.13 -93.48)"/><path d="M230.14,222.6a.87.87,0,1,0,.86.86A.87.87,0,0,0,230.14,222.6Z" transform="translate(-190.13 -93.48)"/><path d="M230.14,218.06a.87.87,0,1,0,.86.86A.86.86,0,0,0,230.14,218.06Z" transform="translate(-190.13 -93.48)"/><circle cx="37.75" cy="132.14" r="0.87"/><circle cx="37.75" cy="127.6" r="0.87"/><path d="M227,216.54a.87.87,0,0,0,1.72.14c-.41-.3-.8-.61-1.19-.94A.88.88,0,0,0,227,216.54Z" transform="translate(-190.13 -93.48)"/><path d="M225.59,227.14a.84.84,0,0,0-.63.28l1.46.35A.85.85,0,0,0,225.59,227.14Z" transform="translate(-190.13 -93.48)"/><path d="M225.59,222.6a.87.87,0,1,0,.87.86A.87.87,0,0,0,225.59,222.6Z" transform="translate(-190.13 -93.48)"/><path d="M225.59,218.06a.87.87,0,0,0,0,1.73.87.87,0,1,0,0-1.73Z" transform="translate(-190.13 -93.48)"/><path d="M226.33,214.84l-1.2.27a.83.83,0,0,0,.46.14A.87.87,0,0,0,226.33,214.84Z" transform="translate(-190.13 -93.48)"/><circle cx="33.21" cy="132.14" r="0.87"/><circle cx="33.21" cy="127.6" r="0.87"/><circle cx="33.21" cy="123.06" r="0.87"/><path d="M221.05,222.6a.87.87,0,1,0,.87.86A.87.87,0,0,0,221.05,222.6Z" transform="translate(-190.13 -93.48)"/><path d="M221.05,218.06a.87.87,0,0,0,0,1.73.87.87,0,1,0,0-1.73Z" transform="translate(-190.13 -93.48)"/><path d="M218.13,225.09h0l.06-.08Z" transform="translate(-190.13 -93.48)"/><path d="M218,220.75a.88.88,0,0,0-.06.33.93.93,0,0,0,.06.34.93.93,0,0,1-.06-.34A.88.88,0,0,1,218,220.75Z" transform="translate(-190.13 -93.48)"/><path d="M218.8,224.76a.85.85,0,0,0-.61.25l-.06.08c.46.23,1,.46,1.53.68,0-.05,0-.09,0-.15A.87.87,0,0,0,218.8,224.76Z" transform="translate(-190.13 -93.48)"/><path d="M218.8,220.22a.85.85,0,0,0-.61.25.92.92,0,0,0-.19.28.88.88,0,0,0-.06.33.93.93,0,0,0,.06.34,1.07,1.07,0,0,0,.19.28.89.89,0,0,0,.61.25.87.87,0,1,0,0-1.73Z" transform="translate(-190.13 -93.48)"/><path d="M219.62,216.82l-1.17.51a.85.85,0,0,0,.35.08A.88.88,0,0,0,219.62,216.82Z" transform="translate(-190.13 -93.48)"/><path d="M216.92,218.16a8.3,8.3,0,0,0-1.25.94.86.86,0,0,0,.84.69.87.87,0,0,0,.41-1.63Z" transform="translate(-190.13 -93.48)"/><path d="M214.73,220.35a2.25,2.25,0,0,0-.21.94,2.33,2.33,0,0,0,.08.59.87.87,0,0,0,.53-.8A.88.88,0,0,0,214.73,220.35Z" transform="translate(-190.13 -93.48)"/><path class="cls-1" d="M218.55,196.88a7,7,0,0,0-7,7v2.18a5.81,5.81,0,0,1-11.62,0V189.57h2.2a4.54,4.54,0,0,0,4.54-4.54v-7.44a4.53,4.53,0,0,0-4.54-4.53h-7.44a4.53,4.53,0,0,0-4.53,4.53V185a4.53,4.53,0,0,0,4.53,4.54h2.21v16.52a8.84,8.84,0,1,0,17.67,0v-2.18a4,4,0,0,1,4-4h2.6v-3Zm-23.89-10.34a1.51,1.51,0,0,1-1.51-1.51v-7.44a1.52,1.52,0,0,1,1.51-1.51h7.44a1.51,1.51,0,0,1,1.51,1.51V185a1.5,1.5,0,0,1-1.51,1.51h-2.2v-1.47a4.06,4.06,0,1,0-3,0v1.47Z" transform="translate(-190.13 -93.48)"/><path class="cls-1" d="M308.91,173.19l-4.22-.15-4.26.2.29-5.23-.42-5.62.24-5.08.23-5.37-.41-5.29,5.28-.19,5.36.45,5.36.06,3.92,1.42,1.63,3.93v6.5l-.39,2.13-.9,1.52-1.83,1.05,3.14,4.78,2.89,5-1.95.05-4.4-.43-4.45.52L312.32,169l-1.42-4.51-2.23-.09.06,4.56Zm4.54-19.53-4.57-.06.09,3.84,4.6.19Z" transform="translate(-190.13 -93.48)"/><path class="cls-1" d="M331.66,174.26l-4-2.23-2-4,.1-5.35-.13-5.36.53-5.39-.23-5.34,4.41.51,4.4-.5-.2,4.7.36,5.05.23,4.88-.25,4.76,4.45.12-.29-4.87.06-4.87.49-4.89V146.8l4.16,0,4.06.09.88,5.07-.15,5.35-.52,5.3,0,5.43-1.76,4.62-3.88.78-5.38-.06Z" transform="translate(-190.13 -93.48)"/><path class="cls-1" d="M351.49,156.53l.13-4.21,1.18-4.12,4.12-1.89,4.84,0,4.85,0,4.69.42.27,4.82-.12,2.3-5.73-.3L360,154l-.09,1.63,7,.74,3.66,2.64,1.3,4,.21,4.08-1.69,4.48-4,2.16-5.09-.65h-5.11l-4.92.14-.57-7.47,6.51.53,6-.47v-1.68L356.47,163l-3.38-2.74Z" transform="translate(-190.13 -93.48)"/><path class="cls-1" d="M374.83,156.53l.2-4.21,1.19-4,4-1.48,4.85.12,4.84-.51,5.07,0-.45,5.18.17,2.17-5.68.33-5.75-.22.12,1.5,6.8,1.46,3.84,2.15,1.09,4.09.3,4.6-1.52,4.11-4.12,1.51-5.09-.09-5.11-.3-4.86.34v-6.91l5.88.25,6.15-.38-.15-1.93-6.81-1.36-4-2.1Z" transform="translate(-190.13 -93.48)"/><path class="cls-1" d="M408.24,173.72l-4.83.21-4.09-.82-.43-5.1.2-5.35,0-5.35.35-5.37-.63-5.57,4.65.52,4,0,.21,5,0,5.35-.34,5.36L408,168Z" transform="translate(-190.13 -93.48)"/><path class="cls-1" d="M419.73,169.25l-1.07,3.81-4.16.62-4.16-.45,1.25-5.17,1.55-5.3.64-5.51,1.58-5.29,1.41-5.17,5.77-.6,6.16.08.91,5.63,2,5.25,1.25,5.12.78,5.75,1.44,5.4-4.5-.14-4.39.06-.57-4.51Zm2.73-13.84-1.83,7,3.14-.17-.78-6.87Z" transform="translate(-190.13 -93.48)"/><path class="cls-1" d="M459,173l-4.15-.19-4.45.4-1.93-6-2.36-5.94-.37.2-.28,3.81.35,4.08.3,4-4.46-.58-4.18.34.35-5.18-.18-5.35,0-5.35-.42-5.37,0-5.45,4.7-.16,4.69-.15,2.3,6.29,1.84,6.13.43-.16.2-4-.47-4,.11-3.49,4.11-.56,4.35.27,0,5v10.63L459,168Z" transform="translate(-190.13 -93.48)"/><path class="cls-1" d="M300.51,178.81l5.36-.06-.3,5.75,0,5.58,5-.43,5.06.48.23-5.63-.24-5.48,5.31-.46-.76,5.74.25,5.36.31,5.35-.55,5.36.56,5.58-5.07-.33.17-5.62.14-6.12-5.41-.19-5.14.43L305.1,200l.17,5.42-4.93.62.05-11,.2-5.35Z" transform="translate(-190.13 -93.48)"/><path class="cls-1" d="M338.4,179.2l1.33,4.84,1.7,4.91,2.42,4.68,1.1,5.12,1.64,4.93.25,2.21-5.26.1-1.26-6.27-5,.75-4.48-.13-1.73,5.74-5.36-.14,0-2.32,1.5-5,1.55-5,2-4.81,1.62-5,1.4-5.3Zm-3.56,5-1.92,5.7-1.56,6.17,7.29-.56L337.39,190l-1.72-5.76Z" transform="translate(-190.13 -93.48)"/><path class="cls-1" d="M354.2,185.65l.29,4.46-.54,4.46.58,4.47.55,1.66,1.84.93,5.55.18,5.48-.2.22,4.35-12.59.16-2.73-.44-2.23-1.22-1.4-2.07-.28-2.59.34-5-.36-10,.68-2.43,1-2.26,2.55-.42,2.44-.53,6.22.2,6-.1-.37,2.48-.26,1.16H361.8l-4.88.36-1.68.82Z" transform="translate(-190.13 -93.48)"/><path class="cls-1" d="M376.55,178.84l-.05,5.66-.32,5.77,5-.24,3-5.34,2.75-6h5.14l-4.06,7.8-2.66,5.71,2.23,3.68,2.09,3.88,1.87,4,.15,2-5.19.37-2.8-5.93-2.53-5.84-4.8-.05.29,5.77-.48,5.55-5,.38.1-5.55.22-5.35.17-5.35-.18-5.37-.3-5.55Z" transform="translate(-190.13 -93.48)"/><path class="cls-1" d="M394.84,206l.39-5.65-.15-10.7-.41-5.37.48-5.39,4.62,0,4.59.26,4.59,0,4.47,0,0,2.62.11,1-7.31.18-6.27,0,.72,6.77,4.41.17,4.5.6.48,3.9-5,0-5.16-.26.3,7.44,4.44.47,4.46-.17,4.68-.51-.29,4.35-4.51-.21-4.59.45-4.58.09Z" transform="translate(-190.13 -93.48)"/><path class="cls-1" d="M436.49,189.86l-.71,2.74-1,2.11-2.34.7,5.11,10.43-5.29.31-2.44-5.32-2.29-5.31H422.3l-.32,5.28-.32,4.64-4.62.26-.32-5.31-.07-5.35,0-5.35.11-5.37v-5.53l4.66-.28,4.47.5,4.46.3H433l2.3,1,1,2.23.4,2.41ZM421.86,183l-.17,4.39.47,3.89,6.89.69,1.95-1.08,1.12-1.78-.51-3.44-1-1.39-1.57-.95Z" transform="translate(-190.13 -93.48)"/><path class="cls-1" d="M459.44,200l-.47,2.26-1.62,1.64-2,1.19-2.57,1.23-4.27-.6-4.27.41-4.64,0,.63-4.21,5.38.11,5.64-.63,2.43-.43.61-2.09.3-1.34-.77-1.68-4.94-1.78L445,193l-3.65-1.5-1.74-4.14.45-2.68.19-2.36,1.73-1.65,2.14-1,2.54-.33,5.93-.92,5.8.84-.23,2.2.08,1.47-5.56-.21-4.49.47-2.33.69-.91,2,0,.95h0a2.81,2.81,0,0,0,2.22,2.18l.35.07,3,1.28,3.65.8,3.46,1.93,1.79,3.88Z" transform="translate(-190.13 -93.48)"/><path class="cls-2" d="M262.57,160.89a.83.83,0,0,1,.5-1.06.82.82,0,0,1,1.05.5.76.76,0,0,1,0,.61c1-.34,2-.69,3-1a.87.87,0,0,1-.48-.48.83.83,0,1,1,1.56-.56.79.79,0,0,1-.07.67q1.54-.56,3-1.11a.82.82,0,1,1,1.13-1,.77.77,0,0,1,0,.58c1-.37,1.9-.76,2.79-1.14a.88.88,0,0,1-.26-.34.83.83,0,1,1,1.6-.25c.88-.39,1.71-.78,2.5-1.17l0,0a.82.82,0,0,1,.22-.89l-.58-2.7,0,0a.83.83,0,0,1-1.06-.5.81.81,0,0,1,.29-.92l-1-1.69-1.64-3-.16-.22a.8.8,0,0,1-.51.93.82.82,0,1,1-.56-1.55.82.82,0,0,1,.7.08L273,142.57l-.37-.51a.82.82,0,0,1-.85-.53.85.85,0,0,1,0-.59l-.84-1.15-1.9-3.12-.19-.27a.84.84,0,0,1-.36.28.82.82,0,0,1-.55-1.55h0l-1-1.41-.76-1.27a.91.91,0,0,1-.22-.32.22.22,0,0,1,0-.08l-.87-1.45-1.36-3.37-.31-.59a.81.81,0,0,1-1.57.1.82.82,0,0,1,1.08-1l-.72-1.35a24.87,24.87,0,0,1-1.08,4.09.82.82,0,0,1,.37,1.58.82.82,0,0,1-.9-.24c-.2.47-.39.94-.62,1.4a.81.81,0,1,1-.67,1.2c-.32.56-.66,1.1-1,1.64l.05,0a.82.82,0,1,1,.55,1.55.81.81,0,0,1-1.05-.5.79.79,0,0,1-.05-.3,24.12,24.12,0,0,1-6.72,6.23h.08a13,13,0,0,1,10.09,7.48l1.75,3.84-6.39.12a12.94,12.94,0,0,1-11.27-6.19,13,13,0,0,1-6.78,10.93l-5.63,3-.37-4.21a13,13,0,0,1,4.94-11.3,24.46,24.46,0,0,1-19.07-9.94l.27,3.23,0,3.5-.14,3.67-.28,3.57-.88,3.47-.72,3.38-.87,3.37-.15,3.3.08,3.65.6,3.42.5,3.43.23.44A421,421,0,0,0,263,161.32.8.8,0,0,1,262.57,160.89ZM265,158.6a.82.82,0,0,1-.56-1.55.83.83,0,0,1,1.06.5A.82.82,0,0,1,265,158.6Zm4.3-9.32a.82.82,0,0,1-.49,1.05.83.83,0,0,1-1.06-.49.84.84,0,0,1,.5-1.06A.82.82,0,0,1,269.33,149.28Zm.36-3.28a.82.82,0,1,1,.55,1.55.82.82,0,1,1-.55-1.55Zm-2.31.27a.84.84,0,0,1-1.06-.5.82.82,0,0,1,1.55-.56A.83.83,0,0,1,267.38,146.27Zm-1.2,2.74a.82.82,0,1,1,.5-1A.82.82,0,0,1,266.18,149Zm-.26-6.81a.82.82,0,1,1-.56-1.55.82.82,0,0,1,1.05.5A.81.81,0,0,1,265.92,142.2Zm-1.46-4.06a.84.84,0,0,1-1.06-.5.82.82,0,0,1,.5-1,.81.81,0,0,1,1.05.49A.82.82,0,0,1,264.46,138.14Zm-.7,1.69a.83.83,0,1,1-1.06-.5A.84.84,0,0,1,263.76,139.83Zm.4,3.57a.82.82,0,0,1,1.06.49.83.83,0,0,1-1.56.56A.82.82,0,0,1,264.16,143.4Zm0,6.84a.84.84,0,0,1,1.06.5.82.82,0,1,1-1.06-.5Zm2,5.62a.82.82,0,0,1-1.05-.5.81.81,0,0,1,.49-1.05.82.82,0,0,1,1.06.49A.84.84,0,0,1,266.23,155.86Zm1.41-2.78a.84.84,0,0,1-1.06-.5.82.82,0,0,1,.5-1.05.81.81,0,0,1,1.05.49A.82.82,0,0,1,267.64,153.08Zm1.46,4.06a.82.82,0,1,1-.56-1.55.82.82,0,0,1,1,.5A.81.81,0,0,1,269.1,157.14Zm1.19-2.74a.82.82,0,1,1-.55-1.55.82.82,0,0,1,1.05.49A.83.83,0,0,1,270.29,154.4Zm1.41-2.78a.82.82,0,1,1,.5-1.06A.84.84,0,0,1,271.7,151.62Zm1.46,4.06a.82.82,0,0,1-1.05-.49.82.82,0,1,1,1.55-.56A.82.82,0,0,1,273.16,155.68Zm3.51-3a.82.82,0,0,1,1.05.5.81.81,0,0,1-.49,1.05.82.82,0,0,1-1.06-.49A.84.84,0,0,1,276.67,152.67Zm-1.46-4.06a.82.82,0,1,1-.5,1A.82.82,0,0,1,275.21,148.61Zm-1.41,2.78a.82.82,0,1,1,.56,1.55.82.82,0,0,1-1.05-.5A.81.81,0,0,1,273.8,151.39Zm-1.46-4.07a.84.84,0,0,1,1.06.5.82.82,0,0,1-.5,1.05.81.81,0,0,1-1-.49A.82.82,0,0,1,272.34,147.32Zm-1.46-4.06a.82.82,0,1,1,.56,1.55.82.82,0,0,1-.56-1.55Zm-1.46-4.07a.83.83,0,0,1,1.06.5.82.82,0,0,1-1.55.56A.83.83,0,0,1,269.42,139.19Zm-1.19,2.75a.81.81,0,0,1,1,.49.84.84,0,0,1-.5,1.06.82.82,0,0,1-.55-1.55Zm-1.46-4.07a.82.82,0,1,1-.5,1.06A.83.83,0,0,1,266.77,137.87Zm-1.46-4.06a.81.81,0,0,1,1.05.49.82.82,0,1,1-1.05-.49Zm-1.46-4.07a.82.82,0,1,1-.5,1A.82.82,0,0,1,263.85,129.74Zm-1.41,2.78a.84.84,0,0,1,1.06.5.82.82,0,0,1-.5,1,.82.82,0,1,1-.56-1.55Zm-1.2,2.75a.82.82,0,0,1,1.06.49.83.83,0,1,1-1.56.56A.82.82,0,0,1,261.24,135.27Zm-4.91,5.79a.83.83,0,0,1-.56-1.56.83.83,0,0,1,.56,1.56Zm1.4-2.78a.82.82,0,0,1-1.05-.5.84.84,0,0,1,.5-1.06.83.83,0,0,1,.55,1.56Zm1.46,4.06a.82.82,0,1,1,.5-1.05A.82.82,0,0,1,259.19,142.34Zm1.2-2.74a.82.82,0,1,1,.5-1.06A.84.84,0,0,1,260.39,139.6Zm1.46,4.06a.82.82,0,0,1-1.05-.49.83.83,0,0,1,.49-1.06.84.84,0,0,1,1.06.5A.82.82,0,0,1,261.85,143.66Zm.41,3.57a.82.82,0,0,1,1.55-.56.84.84,0,0,1-.5,1.06A.82.82,0,0,1,262.26,147.23ZM263,153a.82.82,0,0,1,1.06.49.84.84,0,0,1-.5,1.06A.82.82,0,0,1,263,153Zm-.85,4.33a.82.82,0,0,1-.55-1.55.81.81,0,0,1,1.05.49A.83.83,0,0,1,262.16,157.32Z" transform="translate(-190.13 -93.48)"/><polygon class="cls-2" points="88.31 57.83 88.17 57.59 88.34 57.97 88.31 57.83"/><path class="cls-1" d="M255.18,182.31a.57.57,0,0,0,0,.18.81.81,0,0,0,.11.41C255.23,182.7,255.2,182.5,255.18,182.31Z" transform="translate(-190.13 -93.48)"/><path class="cls-1" d="M253.32,215.64a.8.8,0,0,0-.4.11l-.45.94a.87.87,0,1,0,.85-1.05Z" transform="translate(-190.13 -93.48)"/><path class="cls-1" d="M255.72,213.42a.87.87,0,1,0,.86.87A.86.86,0,0,0,255.72,213.42Z" transform="translate(-190.13 -93.48)"/><path class="cls-1" d="M260.26,213.46a.87.87,0,1,0,0,1.73.85.85,0,0,0,.87-.85A.86.86,0,0,0,260.26,213.46Z" transform="translate(-190.13 -93.48)"/><path class="cls-1" d="M257.91,211.15a.87.87,0,1,0,0,1.73.87.87,0,0,0,0-1.73Z" transform="translate(-190.13 -93.48)"/><path class="cls-1" d="M262.45,211.19a.88.88,0,0,0-.88.86.87.87,0,0,0,1.74,0A.88.88,0,0,0,262.45,211.19Z" transform="translate(-190.13 -93.48)"/><path class="cls-1" d="M260.31,208.92a.87.87,0,1,0,.86.87A.87.87,0,0,0,260.31,208.92Z" transform="translate(-190.13 -93.48)"/><path class="cls-1" d="M264.83,210.7a.87.87,0,1,0-.86-.88A.88.88,0,0,0,264.83,210.7Z" transform="translate(-190.13 -93.48)"/><path class="cls-1" d="M258,206.61a.87.87,0,1,0,.86.87A.87.87,0,0,0,258,206.61Z" transform="translate(-190.13 -93.48)"/><path class="cls-1" d="M262.49,206.65a.87.87,0,1,0,.86.88A.88.88,0,0,0,262.49,206.65Z" transform="translate(-190.13 -93.48)"/><path class="cls-1" d="M267,208.43a.87.87,0,0,0,0-1.74.87.87,0,0,0,0,1.74Z" transform="translate(-190.13 -93.48)"/><path class="cls-1" d="M260.35,204.38a.87.87,0,1,0,.86.87A.87.87,0,0,0,260.35,204.38Z" transform="translate(-190.13 -93.48)"/><path class="cls-1" d="M264.88,206.16a.87.87,0,1,0-.86-.88A.87.87,0,0,0,264.88,206.16Z" transform="translate(-190.13 -93.48)"/><path class="cls-1" d="M269.42,206.2a.87.87,0,0,0,.87-.86.87.87,0,0,0-1.73,0A.87.87,0,0,0,269.42,206.2Z" transform="translate(-190.13 -93.48)"/><path class="cls-1" d="M258,202.07a.87.87,0,1,0,.86.87A.86.86,0,0,0,258,202.07Z" transform="translate(-190.13 -93.48)"/><path class="cls-1" d="M262.53,202.11a.87.87,0,1,0,.86.88A.86.86,0,0,0,262.53,202.11Z" transform="translate(-190.13 -93.48)"/><path class="cls-1" d="M267.06,203.89a.87.87,0,1,0-.86-.88A.86.86,0,0,0,267.06,203.89Z" transform="translate(-190.13 -93.48)"/><path class="cls-1" d="M271.6,203.93a.87.87,0,1,0-.86-.87A.86.86,0,0,0,271.6,203.93Z" transform="translate(-190.13 -93.48)"/><path class="cls-1" d="M260.39,199.84a.87.87,0,1,0,.86.87A.86.86,0,0,0,260.39,199.84Z" transform="translate(-190.13 -93.48)"/><path class="cls-1" d="M264.92,201.62a.87.87,0,1,0-.86-.88A.88.88,0,0,0,264.92,201.62Z" transform="translate(-190.13 -93.48)"/><path class="cls-1" d="M269.46,201.66a.87.87,0,1,0-.86-.88A.88.88,0,0,0,269.46,201.66Z" transform="translate(-190.13 -93.48)"/><path class="cls-1" d="M274,201.7a.87.87,0,0,0,0-1.73.87.87,0,1,0,0,1.73Z" transform="translate(-190.13 -93.48)"/><path class="cls-1" d="M258,197.53a.87.87,0,1,0,.85.87A.85.85,0,0,0,258,197.53Z" transform="translate(-190.13 -93.48)"/><path class="cls-1" d="M262.58,197.57a.87.87,0,1,0,.86.87A.87.87,0,0,0,262.58,197.57Z" transform="translate(-190.13 -93.48)"/><path class="cls-1" d="M267.1,199.35a.87.87,0,1,0-.86-.88A.88.88,0,0,0,267.1,199.35Z" transform="translate(-190.13 -93.48)"/><path class="cls-1" d="M271.64,199.39a.88.88,0,0,0,.88-.86.87.87,0,1,0-.88.86Z" transform="translate(-190.13 -93.48)"/><path class="cls-1" d="M276.18,199.43a.87.87,0,1,0-.86-.87A.87.87,0,0,0,276.18,199.43Z" transform="translate(-190.13 -93.48)"/><path class="cls-1" d="M260.44,195.3a.87.87,0,1,0,.86.87A.87.87,0,0,0,260.44,195.3Z" transform="translate(-190.13 -93.48)"/><path class="cls-1" d="M265,197.07a.86.86,0,0,0,.88-.85.87.87,0,1,0-1.74,0A.86.86,0,0,0,265,197.07Z" transform="translate(-190.13 -93.48)"/><path class="cls-1" d="M269.5,197.12a.87.87,0,1,0-.86-.88A.88.88,0,0,0,269.5,197.12Z" transform="translate(-190.13 -93.48)"/><path class="cls-1" d="M274,197.16a.87.87,0,1,0-.86-.87A.87.87,0,0,0,274,197.16Z" transform="translate(-190.13 -93.48)"/><path class="cls-1" d="M258.08,193a.87.87,0,1,0,.86.87A.87.87,0,0,0,258.08,193Z" transform="translate(-190.13 -93.48)"/><path class="cls-1" d="M262.62,193a.87.87,0,0,0,0,1.73.87.87,0,1,0,0-1.73Z" transform="translate(-190.13 -93.48)"/><path class="cls-1" d="M267.14,194.81a.87.87,0,0,0,0-1.74.87.87,0,0,0,0,1.74Z" transform="translate(-190.13 -93.48)"/><path class="cls-1" d="M271.69,194.85a.87.87,0,0,0,0-1.73.85.85,0,0,0-.87.85A.87.87,0,0,0,271.69,194.85Z" transform="translate(-190.13 -93.48)"/><path class="cls-1" d="M276.23,194.89a.87.87,0,1,0-.86-.87A.86.86,0,0,0,276.23,194.89Z" transform="translate(-190.13 -93.48)"/><path class="cls-1" d="M260.48,190.76a.87.87,0,1,0,.86.87A.86.86,0,0,0,260.48,190.76Z" transform="translate(-190.13 -93.48)"/><path class="cls-1" d="M265,192.53a.86.86,0,0,0,.87-.85.87.87,0,1,0-1.73,0A.86.86,0,0,0,265,192.53Z" transform="translate(-190.13 -93.48)"/><path class="cls-1" d="M269.55,192.58a.87.87,0,1,0-.86-.88A.87.87,0,0,0,269.55,192.58Z" transform="translate(-190.13 -93.48)"/><path class="cls-1" d="M274.09,192.62a.87.87,0,1,0-.86-.87A.86.86,0,0,0,274.09,192.62Z" transform="translate(-190.13 -93.48)"/><path class="cls-1" d="M278.63,192.66a.85.85,0,0,0,.87-.85.87.87,0,1,0-1.73,0A.86.86,0,0,0,278.63,192.66Z" transform="translate(-190.13 -93.48)"/><path class="cls-1" d="M258.12,188.44a.87.87,0,1,0,.86.88A.86.86,0,0,0,258.12,188.44Z" transform="translate(-190.13 -93.48)"/><path class="cls-1" d="M262.66,188.49a.87.87,0,1,0,.86.87A.86.86,0,0,0,262.66,188.49Z" transform="translate(-190.13 -93.48)"/><path class="cls-1" d="M267.19,190.27a.87.87,0,1,0-.86-.88A.86.86,0,0,0,267.19,190.27Z" transform="translate(-190.13 -93.48)"/><path class="cls-1" d="M271.73,190.31a.87.87,0,1,0-.86-.88A.88.88,0,0,0,271.73,190.31Z" transform="translate(-190.13 -93.48)"/><path class="cls-1" d="M276.27,190.35a.87.87,0,0,0,0-1.73.87.87,0,1,0,0,1.73Z" transform="translate(-190.13 -93.48)"/><path class="cls-1" d="M260.53,186.22a.87.87,0,1,0,.85.87A.85.85,0,0,0,260.53,186.22Z" transform="translate(-190.13 -93.48)"/><path class="cls-1" d="M265.05,188a.85.85,0,0,0,.87-.85.86.86,0,0,0-.85-.88.88.88,0,0,0-.88.86A.86.86,0,0,0,265.05,188Z" transform="translate(-190.13 -93.48)"/><path class="cls-1" d="M269.59,188a.87.87,0,0,0,0-1.74.87.87,0,1,0,0,1.74Z" transform="translate(-190.13 -93.48)"/><path class="cls-1" d="M274.13,188.08a.87.87,0,1,0-.86-.87A.87.87,0,0,0,274.13,188.08Z" transform="translate(-190.13 -93.48)"/><path class="cls-1" d="M278.67,188.12a.87.87,0,1,0-.86-.87A.87.87,0,0,0,278.67,188.12Z" transform="translate(-190.13 -93.48)"/><path class="cls-1" d="M258.17,183.9a.87.87,0,1,0,.86.88A.88.88,0,0,0,258.17,183.9Z" transform="translate(-190.13 -93.48)"/><path class="cls-1" d="M262.71,184a.87.87,0,1,0,.86.87A.87.87,0,0,0,262.71,184Z" transform="translate(-190.13 -93.48)"/><path class="cls-1" d="M267.23,185.72a.87.87,0,1,0-.86-.87A.87.87,0,0,0,267.23,185.72Z" transform="translate(-190.13 -93.48)"/><path class="cls-1" d="M271.77,185.77a.87.87,0,1,0-.86-.88A.88.88,0,0,0,271.77,185.77Z" transform="translate(-190.13 -93.48)"/><path class="cls-1" d="M276.31,185.81a.87.87,0,1,0-.86-.87A.87.87,0,0,0,276.31,185.81Z" transform="translate(-190.13 -93.48)"/><path class="cls-1" d="M280.85,185.85a.86.86,0,0,0,.88-.85.87.87,0,1,0-1.74,0A.86.86,0,0,0,280.85,185.85Z" transform="translate(-190.13 -93.48)"/><path class="cls-1" d="M260.57,181.68a.87.87,0,1,0,.86.87A.87.87,0,0,0,260.57,181.68Z" transform="translate(-190.13 -93.48)"/><path class="cls-1" d="M265.09,183.45a.87.87,0,1,0-.86-.87A.87.87,0,0,0,265.09,183.45Z" transform="translate(-190.13 -93.48)"/><path class="cls-1" d="M269.63,183.5a.87.87,0,1,0-.86-.88A.88.88,0,0,0,269.63,183.5Z" transform="translate(-190.13 -93.48)"/><path class="cls-1" d="M274.17,183.54a.88.88,0,0,0,.88-.86.87.87,0,1,0-.88.86Z" transform="translate(-190.13 -93.48)"/><path class="cls-1" d="M278.71,183.58a.87.87,0,1,0-.85-.87A.85.85,0,0,0,278.71,183.58Z" transform="translate(-190.13 -93.48)"/><path class="cls-1" d="M267.27,181.18a.86.86,0,0,0,.88-.85.88.88,0,0,0-.86-.88.87.87,0,0,0,0,1.73Z" transform="translate(-190.13 -93.48)"/><path class="cls-1" d="M271.82,181.23a.87.87,0,1,0-.86-.88A.87.87,0,0,0,271.82,181.23Z" transform="translate(-190.13 -93.48)"/><path class="cls-1" d="M276.36,181.27a.87.87,0,1,0-.86-.87A.86.86,0,0,0,276.36,181.27Z" transform="translate(-190.13 -93.48)"/><path class="cls-1" d="M280.9,181.31a.85.85,0,0,0,.87-.85.87.87,0,1,0-1.73,0A.86.86,0,0,0,280.9,181.31Z" transform="translate(-190.13 -93.48)"/><path class="cls-1" d="M286.43,172.16a52,52,0,0,0-2.25-14.52l-1.07-4.56L282,149.86l-1.57-3.41-1.8-3.31-2.5-2.82-2.45-3-2.37-3-1.89-3.43-1.72-4-1.18-3.24-1-3.74-.89-3.79-.56-2.64-1.23-3.34a18.29,18.29,0,0,0-3.55-6.09h0L257,101.43,254.37,99l-2.87-2-3.17-1.49-3.27-1.22-3.4-.86-3.52,0-2.81.34-2.74.62-3.42.71-3.2,1.4-3.09,1.67-2.6,2.35-2.67,2.3L215.93,106l-2,2.92-1.23,3.29-1,3.39-.17,3.52-.25,3.54,1.11,3.38.36,2.76,1.26,3.59.69,3a4.8,4.8,0,0,1,.13,1l.07,3,.09,4.42-.44,3.8-.9,3.7-.65,3.7-.78,3.67-.12,3.09.27,4.39.3,3.73.57,3.7.49,2.05.13.79-.16,1.62.31,2.82.64,2.78.3,2.82.8,2.72.6,2.65.95,2.78.82,2.71,1,2.62,1.31,2.54,1.23,2.56,1.69,2.29,1.7,2.28,1.75,2.33,2.06,2,2.31,1.73,2.4,1.6,2.59,1.26,2.63,1.15,2.74.86,2.78.72,2.86.39,2.78.16,3-.2,2.77-.42,3-.71,2.51-.73,2.61-1.17,2.37-1.61,2.37-1.56,2.12-1.88,2.25-1.83,1.93-2.08,1.75-2.24,1.38-2.22,1.33-2.76,1.51-2.63,1-2.44,1-2.66.72-2.75.9-2.69.55-2.87.47-2.72.12-2.84.54-2.41a2.87,2.87,0,0,0,.08-.78l0-1.58.07-.83c0-.95,0-1.87,0-2.77v-.27Zm-8-20.85,0,.15-.17-.38Zm-57.92-30.23a9.46,9.46,0,0,1,.93-1.5c.26-.46.89-.69,1.29-1.16s.44-1.08.9-1.49a14.69,14.69,0,0,1,1.39-1,16.68,16.68,0,0,1,1.58-.67,16.81,16.81,0,0,1,1.47-.89c.53-.21,1.12-.2,1.56-.42a12.83,12.83,0,0,0,1.36-.88c.49-.31.73-.89,1.09-1.19a15.76,15.76,0,0,0,1.3-.93,8.94,8.94,0,0,0,1-1.31,13.81,13.81,0,0,0,.28-3.67,31.41,31.41,0,0,0,2.09,3,2.43,2.43,0,0,0,1.25,1,12.17,12.17,0,0,0,1.57.43c.47.11,1,0,1.62,0a14.61,14.61,0,0,0,1.59.13c.46,0,.94.13,1.42.09s.93,0,1.37,0a15.46,15.46,0,0,1,1.63-.07,11.42,11.42,0,0,1,1.56.54c.56.13,1.17,0,1.64.16a10.82,10.82,0,0,1,1.44.79,8.45,8.45,0,0,1,1.27,1,8,8,0,0,1,1.06,1.2,8.94,8.94,0,0,1,.95,1.28,4,4,0,0,1,.52,1c.08.55.21,1,.24,1.59s0,1.17,0,1.72a15.28,15.28,0,0,1-.13,1.65c-.07.55-.1,1.12-.22,1.66s-.28,1.08-.45,1.6-.47,1-.69,1.52-.63.92-.9,1.4-.78.79-1.09,1.24a15.41,15.41,0,0,1-.73,1.4c-.35.43-.69,1-1.08,1.36a13.6,13.6,0,0,1-1.06,1.32c-.42.35-1.18.27-1.64.58s-.87.65-1.35.92-1,.41-1.52.63-1,.44-1.51.62-.93.74-1.47.87a20.18,20.18,0,0,1-2.06,0,17.32,17.32,0,0,1-2,.32c-.57,0-1.15,0-1.71,0s-1.16,0-1.71-.14-1.05-.51-1.59-.67-1-.49-1.55-.7-1.13-.22-1.64-.48a17.08,17.08,0,0,1-1.58-.68c-.48-.31-.81-.85-1.25-1.2a15.07,15.07,0,0,1-1.26-1.14c-.41-.39-.69-.89-1.06-1.32s-.72-.86-1.05-1.32-.6-.94-.88-1.44a16.29,16.29,0,0,1-.79-1.49,16.77,16.77,0,0,1-.51-1.61,14.2,14.2,0,0,1-.55-1.59s.07,0,.06,0C220.73,122.47,220.3,121.72,220.52,121.08Zm-3.45,52.08-.23-.44-.5-3.43-.6-3.42-.08-3.65.15-3.3.87-3.37.72-3.38.88-3.47.28-3.57.14-3.67,0-3.5-.27-3.23a24.46,24.46,0,0,0,19.07,9.94,13,13,0,0,0-4.94,11.3l.37,4.21,5.63-3a13,13,0,0,0,6.78-10.93,12.94,12.94,0,0,0,11.27,6.19l6.39-.12-1.75-3.84A13,13,0,0,0,251.19,141h-.08a24.12,24.12,0,0,0,6.72-6.23.79.79,0,0,0,.05.3.82.82,0,0,0,1.55-.55.82.82,0,0,0-1.05-.5l-.05,0c.36-.54.7-1.08,1-1.64a.82.82,0,1,0,.67-1.2c.23-.46.42-.93.62-1.4a.82.82,0,0,0,.9.24.82.82,0,0,0-.37-1.58,24.87,24.87,0,0,0,1.08-4.09l.72,1.35a.82.82,0,0,0-1.08,1,.81.81,0,0,0,1.57-.1l.31.59,1.36,3.37L266,132a.22.22,0,0,0,0,.08.91.91,0,0,0,.22.32l.76,1.27,1,1.41h0a.82.82,0,0,0,.55,1.55.84.84,0,0,0,.36-.28l.19.27,1.9,3.12.84,1.15a.85.85,0,0,0,0,.59.82.82,0,0,0,.85.53l.37.51,1.44,2.05a.82.82,0,0,0-.7-.08.82.82,0,1,0,.56,1.55.8.8,0,0,0,.51-.93l.16.22,1.64,3,1,1.69a.81.81,0,0,0-.29.92.83.83,0,0,0,1.06.5l0,0,.58,2.7a.82.82,0,0,0-.22.89l0,0c-.79.39-1.62.78-2.5,1.17a.83.83,0,1,0-1.6.25.88.88,0,0,0,.26.34c-.89.38-1.83.77-2.79,1.14a.77.77,0,0,0,0-.58.82.82,0,0,0-1.05-.5.82.82,0,0,0-.08,1.52q-1.46.56-3,1.11a.79.79,0,0,0,.07-.67.83.83,0,1,0-1.56.56.87.87,0,0,0,.48.48c-1,.34-2,.69-3,1a.76.76,0,0,0,0-.61.82.82,0,0,0-1.05-.5.83.83,0,0,0-.5,1.06.8.8,0,0,0,.38.43A421,421,0,0,1,217.07,173.16Zm65.54,6.74-.38,2.72-.53,2.57-.44,2.86-.22.66a.8.8,0,0,0-.21-.05.88.88,0,0,0-.88.86.86.86,0,0,0,.56.81l-.11.34-.83,2.62-1.06,2.2a.85.85,0,0,0-.78.84.8.8,0,0,0,.23.59l-.44,1.19-1.15,2.77-.92,1.74a.71.71,0,0,0-.11.21l-.26.48-.93,1.24a.53.53,0,0,0-.18,0,.86.86,0,0,0-.87.86.8.8,0,0,0,.13.43l-1,1.35a.83.83,0,0,0-.71-.41.87.87,0,0,0-.37,1.65l-1.08,1.05a.86.86,0,1,0-1.26,1.11l-1.08.93-.12.11a.85.85,0,0,0-1.55.5.88.88,0,0,0,.26.63l-.65.58-.53.31a.84.84,0,0,0-.38-.11.87.87,0,0,0-.88.84l-.59.35-2.4,1.37-2.26.69a.58.58,0,0,0,0-.19.87.87,0,1,0-1.49.59l-1.61.43h-2.77l-2.72.18-2.76.18-2.71-.53-2.74-.42-2.7-1.1-2.44-1-2.29-1.56-2-1.9-2.23-1.62-1.73-2.15-1.82-2.06-1.29-2.11L224,200.83l-1.18-2.47-1.16-2.48-.94-2.58-.91-2.6-.65-2.68-.55-2.69-.34-2.73-.29-2.73L217.5,177l2.86.59,2.7.22,1.47,0a205.78,205.78,0,0,0,22.41,1.57c3.79.08,7.43.12,10.86.12a.84.84,0,0,0-.46.74.86.86,0,0,0,.85.88.86.86,0,0,0,.42-1.62l3.85,0a.86.86,0,1,0,1.15.82.86.86,0,0,0-.62-.82c9.25-.08,16.36-.37,19.63-.53Z" transform="translate(-190.13 -93.48)"/><path class="cls-1" d="M264.47,157.05a.82.82,0,1,0,1.06.5A.83.83,0,0,0,264.47,157.05Z" transform="translate(-190.13 -93.48)"/><path class="cls-1" d="M268.54,155.59a.82.82,0,1,0,.56,1.55.81.81,0,0,0,.49-1A.82.82,0,0,0,268.54,155.59Z" transform="translate(-190.13 -93.48)"/><path class="cls-1" d="M272.6,154.13a.83.83,0,0,0-.49,1.06.82.82,0,0,0,1.55-.56A.83.83,0,0,0,272.6,154.13Z" transform="translate(-190.13 -93.48)"/><path class="cls-1" d="M276.17,153.73a.82.82,0,0,0,1.06.49.81.81,0,0,0,.49-1.05.82.82,0,0,0-1.05-.5A.84.84,0,0,0,276.17,153.73Z" transform="translate(-190.13 -93.48)"/><path class="cls-1" d="M262.66,156.26a.81.81,0,0,0-1.05-.49.82.82,0,1,0,1.05.49Z" transform="translate(-190.13 -93.48)"/><path class="cls-1" d="M265.67,154.31a.81.81,0,0,0-.49,1.05.82.82,0,0,0,1.05.5.84.84,0,0,0,.5-1.06A.82.82,0,0,0,265.67,154.31Z" transform="translate(-190.13 -93.48)"/><path class="cls-1" d="M269.74,152.85a.82.82,0,1,0,1.05.49A.82.82,0,0,0,269.74,152.85Z" transform="translate(-190.13 -93.48)"/><path class="cls-1" d="M273.31,152.44a.82.82,0,0,0,1.05.5.82.82,0,1,0-.56-1.55A.81.81,0,0,0,273.31,152.44Z" transform="translate(-190.13 -93.48)"/><path class="cls-1" d="M263.57,154.54a.84.84,0,0,0,.5-1.06.82.82,0,1,0-.5,1.06Z" transform="translate(-190.13 -93.48)"/><path class="cls-1" d="M268.13,152a.81.81,0,0,0-1.05-.49.82.82,0,0,0-.5,1.05.84.84,0,0,0,1.06.5A.82.82,0,0,0,268.13,152Z" transform="translate(-190.13 -93.48)"/><path class="cls-1" d="M272.2,150.56a.82.82,0,1,0-.5,1.06A.84.84,0,0,0,272.2,150.56Z" transform="translate(-190.13 -93.48)"/><path class="cls-1" d="M275.77,150.16a.82.82,0,1,0-.56-1.55.82.82,0,0,0-.5,1A.84.84,0,0,0,275.77,150.16Z" transform="translate(-190.13 -93.48)"/><path class="cls-1" d="M263.72,151.3a.82.82,0,0,0,1.55-.56.84.84,0,0,0-1.06-.5A.82.82,0,0,0,263.72,151.3Z" transform="translate(-190.13 -93.48)"/><path class="cls-1" d="M268.28,148.78a.84.84,0,0,0-.5,1.06.83.83,0,0,0,1.06.49.82.82,0,0,0-.56-1.55Z" transform="translate(-190.13 -93.48)"/><path class="cls-1" d="M271.85,148.38a.81.81,0,0,0,1,.49.82.82,0,0,0,.5-1.05.84.84,0,0,0-1.06-.5A.82.82,0,0,0,271.85,148.38Z" transform="translate(-190.13 -93.48)"/><path class="cls-1" d="M265.62,147.46a.82.82,0,1,0,.56,1.55.82.82,0,0,0,.5-1A.84.84,0,0,0,265.62,147.46Z" transform="translate(-190.13 -93.48)"/><path class="cls-1" d="M270.24,147.55a.82.82,0,1,0-1.05-.49A.82.82,0,0,0,270.24,147.55Z" transform="translate(-190.13 -93.48)"/><path class="cls-1" d="M263.81,146.67a.82.82,0,1,0-.5,1.06A.84.84,0,0,0,263.81,146.67Z" transform="translate(-190.13 -93.48)"/><path class="cls-1" d="M266.82,144.72a.82.82,0,0,0-.5,1.05.82.82,0,1,0,1.55-.56A.82.82,0,0,0,266.82,144.72Z" transform="translate(-190.13 -93.48)"/><path class="cls-1" d="M270.39,144.31a.82.82,0,0,0,1.05.5.82.82,0,1,0-.56-1.55A.82.82,0,0,0,270.39,144.31Z" transform="translate(-190.13 -93.48)"/><path class="cls-1" d="M264.72,145a.84.84,0,0,0,.5-1.06.83.83,0,0,0-1.56.56A.84.84,0,0,0,264.72,145Z" transform="translate(-190.13 -93.48)"/><path class="cls-1" d="M267.73,143a.82.82,0,0,0,1,.5.84.84,0,0,0,.5-1.06.81.81,0,0,0-1-.49A.82.82,0,0,0,267.73,143Z" transform="translate(-190.13 -93.48)"/><path class="cls-1" d="M262.35,142.61a.84.84,0,0,0-1.06-.5.83.83,0,0,0-.49,1.06.82.82,0,0,0,1.55-.56Z" transform="translate(-190.13 -93.48)"/><path class="cls-1" d="M265.36,140.65a.82.82,0,1,0,.56,1.55.81.81,0,0,0,.49-1A.82.82,0,0,0,265.36,140.65Z" transform="translate(-190.13 -93.48)"/><path class="cls-1" d="M270,140.74a.82.82,0,0,0,.5-1.05.82.82,0,1,0-1.55.56A.82.82,0,0,0,270,140.74Z" transform="translate(-190.13 -93.48)"/><path class="cls-1" d="M258.64,140.79a.82.82,0,1,0,.55,1.55.82.82,0,0,0-.55-1.55Z" transform="translate(-190.13 -93.48)"/><path class="cls-1" d="M262.7,139.33a.82.82,0,1,0,1.06.5A.84.84,0,0,0,262.7,139.33Z" transform="translate(-190.13 -93.48)"/><path class="cls-1" d="M266.27,138.93a.82.82,0,1,0,.5-1.06A.83.83,0,0,0,266.27,138.93Z" transform="translate(-190.13 -93.48)"/><path class="cls-1" d="M255.77,139.5a.83.83,0,0,0,.56,1.56.83.83,0,0,0-.56-1.56Z" transform="translate(-190.13 -93.48)"/><path class="cls-1" d="M260.89,138.54a.82.82,0,1,0-.5,1.06A.84.84,0,0,0,260.89,138.54Z" transform="translate(-190.13 -93.48)"/><path class="cls-1" d="M263.9,136.59a.82.82,0,0,0-.5,1,.84.84,0,0,0,1.06.5.82.82,0,0,0,.49-1.06A.81.81,0,0,0,263.9,136.59Z" transform="translate(-190.13 -93.48)"/><path class="cls-1" d="M258.23,137.22a.82.82,0,0,0-1.05-.5.84.84,0,0,0-.5,1.06.82.82,0,1,0,1.55-.56Z" transform="translate(-190.13 -93.48)"/><path class="cls-1" d="M261.8,136.82a.84.84,0,0,0,.5-1.06.83.83,0,0,0-1.56.56A.84.84,0,0,0,261.8,136.82Z" transform="translate(-190.13 -93.48)"/><path class="cls-1" d="M264.81,134.86a.82.82,0,1,0,1.55-.56.81.81,0,0,0-1.05-.49A.82.82,0,0,0,264.81,134.86Z" transform="translate(-190.13 -93.48)"/><path class="cls-1" d="M263,134.07a.82.82,0,0,0,.5-1,.83.83,0,1,0-.5,1Z" transform="translate(-190.13 -93.48)"/><path class="cls-1" d="M264.41,131.29a.82.82,0,0,0-.56-1.55.82.82,0,1,0,.56,1.55Z" transform="translate(-190.13 -93.48)"/><path class="cls-1" d="M241.1,129.36c-.71.17-.61.73-.61.73h0a.67.67,0,0,0-.87-.39,6.84,6.84,0,0,1-2.54.59,3.73,3.73,0,0,0,1.8,1.44,3.81,3.81,0,0,0,2,.1h0a3.74,3.74,0,0,0,1.77-1,3,3,0,0,0,.76-2.17A6.86,6.86,0,0,1,241.1,129.36Z" transform="translate(-190.13 -93.48)"/><path class="cls-1" d="M250.12,119.77l-.41-1.23a59.51,59.51,0,0,1-8.13,3.57l.39.73,1-.25s1.22,2,4,.8a2.76,2.76,0,0,0,1.86-3.13Z" transform="translate(-190.13 -93.48)"/><path class="cls-1" d="M226.92,123.81l.17,1.29,1.41-.15a2.77,2.77,0,0,0,3.05,2c3-.16,3.19-2.45,3.19-2.45l1-.22,0-.83A59.49,59.49,0,0,1,226.92,123.81Z" transform="translate(-190.13 -93.48)"/><polygon class="cls-3" points="62.71 80.88 63.74 80.13 64.67 79.3 64.83 78.35 64.38 77.43 63.13 76.97 61.88 76.52 60.79 75.98 59.51 75.92 58.27 75.76 57 75.88 55.76 76.16 54.63 76.69 53.72 77.43 52.67 78.16 51.7 78.96 51.59 79.98 52.04 80.95 53.38 81.27 54.56 81.84 55.65 82.39 56.92 82.56 58.2 82.67 59.46 82.47 60.67 82.12 61.71 81.51 62.71 80.88"/><ellipse class="cls-1" cx="245.25" cy="173.03" rx="1.64" ry="1.34" transform="translate(-192.78 -89.67) rotate(-0.89)"/><polygon class="cls-3" points="85.22 78.1 86.12 77.24 87.06 76.42 87.62 75.52 86.75 74.83 85.54 74.3 84.33 73.78 83.22 73.33 82.02 73.06 80.77 73.06 79.54 73.24 78.32 73.48 77.22 74 76.35 74.75 75.26 75.44 74.24 76.19 73.91 77.21 74.71 77.89 75.78 78.63 77.03 79.09 78.22 79.41 79.41 79.78 80.68 79.65 81.94 79.62 83.16 79.31 84.32 78.85 85.22 78.1"/><ellipse class="cls-1" cx="267.74" cy="170.23" rx="1.64" ry="1.34" transform="translate(-192.73 -89.32) rotate(-0.89)"/></svg>